<svg width="200" height="200" viewBox="0 0 200 200" fill="none" xmlns="http://www.w3.org/2000/svg">
<path d="M91.674 79.1549L100.768 70.0611L109.862 79.1549H91.674Z" fill="white"/>
<path d="M54.5287 118.327C54.5287 107.51 63.2977 98.7411 74.1149 98.7411C84.932 98.7411 93.701 107.51 93.701 118.327C93.701 129.144 84.932 137.913 74.1149 137.913C63.2977 137.913 54.5287 129.144 54.5287 118.327Z" fill="white"/>
<path fill-rule="evenodd" clip-rule="evenodd" d="M100 200C155.228 200 200 155.228 200 100C200 44.7715 155.228 0 100 0C44.7715 0 0 44.7715 0 100C0 155.228 44.7715 200 100 200ZM100.768 60.8281L83.7931 43.8535L47.5355 80.111L52.152 84.7275L83.7931 53.0865L96.1513 65.4446L75.9122 85.6836H125.623L105.384 65.4446L117.742 53.0865L149.383 84.7275L154 80.111L117.742 43.8535L100.768 60.8281ZM74.1149 144.442C66.3151 144.442 59.3139 141.023 54.5287 135.601V160.111H48V96.1296H54.5287V101.053C59.3139 95.6318 66.3151 92.2124 74.1149 92.2124C88.5377 92.2124 100.23 103.904 100.23 118.327C100.23 132.75 88.5377 144.442 74.1149 144.442ZM121.811 118.327L101.269 97.785L105.885 93.1685L126.427 113.711L146.97 93.1685L151.586 97.785L131.044 118.327L151.586 138.869L146.97 143.486L126.427 122.944L105.885 143.486L101.269 138.869L121.811 118.327Z" fill="white"/>
</svg>
